<!DOCTYPE svg PUBLIC "-//W3C//DTD SVG 20010904//EN" "http://www.w3.org/TR/2001/REC-SVG-20010904/DTD/svg10.dtd">
<svg version="1.0" xmlns="http://www.w3.org/2000/svg" width="465px" height="269px" viewBox="0 0 4650 2690" preserveAspectRatio="xMidYMid meet">
<g id="layer1" fill="#000000" stroke="none">
 <path d="M692 2522 l-134 -117 -89 -177 -89 -177 -35 -213 -36 -213 21 -250 c20 -246 22 -254 86 -495 35 -135 69 -254 73 -266 7 -15 146 -218 167 -243 8 -9 392 45 609 85 l240 45 405 -6 405 -7 477 -59 c565 -70 1125 -153 1189 -175 41 -15 51 -15 90 -2 40 13 48 21 81 84 24 45 39 89 43 127 7 57 6 60 -26 93 -44 46 -30 53 29 15 27 -17 52 -31 55 -31 4 0 27 39 51 88 l44 87 3 330 4 329 -40 10 c-22 6 -45 14 -52 19 -20 13 -2 47 43 79 24 17 44 38 44 46 0 8 -7 42 -16 75 -12 46 -28 75 -65 118 -44 51 -55 58 -116 74 -38 10 -102 21 -143 24 l-75 6 -3 39 c-2 23 6 63 19 97 17 47 29 63 58 80 29 16 46 38 74 95 20 41 37 77 37 80 0 3 -39 23 -86 44 l-86 40 -146 0 -147 0 -45 -66 c-36 -51 -72 -85 -174 -161 -79 -58 -146 -100 -170 -107 -23 -6 -129 -10 -243 -9 l-202 1 -534 147 -535 146 -353 165 c-304 141 -513 224 -563 224 -6 0 -71 -53 -144 -118z m301 -175 l67 -62 40 -413 39 -413 -80 -352 c-55 -247 -84 -356 -96 -364 -9 -7 -36 -20 -59 -29 l-44 -17 -88 82 c-49 44 -95 87 -102 96 -9 11 -10 71 -5 266 4 138 11 247 15 242 10 -11 96 -331 111 -413 16 -85 20 -92 74 -121 l46 -24 43 50 44 50 7 123 c3 68 4 126 1 129 -4 4 -45 -56 -111 -163 -10 -15 -13 -15 -38 7 -21 18 -36 51 -61 135 l-33 112 -8 308 c-6 293 -6 314 15 404 11 52 22 96 24 97 2 2 26 -15 54 -37 44 -36 55 -52 86 -131 l35 -91 -15 -182 c-8 -99 -18 -184 -22 -188 -4 -3 -16 -8 -27 -10 -19 -3 -20 3 -23 164 -2 143 -5 167 -19 172 -9 4 -21 2 -27 -4 -12 -13 -13 -245 -2 -431 l8 -116 35 -12 c19 -7 36 -11 37 -9 2 1 20 53 39 113 32 96 38 130 48 272 l11 162 -37 158 c-58 253 -45 226 -120 252 -36 13 -67 22 -69 20 -2 -2 -38 -72 -79 -155 l-76 -152 -26 -268 c-14 -147 -27 -269 -28 -271 -2 -1 -22 11 -44 27 l-40 30 63 370 c34 203 66 376 70 382 5 7 50 70 102 141 l94 127 51 0 c50 0 55 -3 120 -63z m2947 -115 c41 -16 45 -20 45 -52 0 -32 -5 -38 -50 -62 -48 -26 -155 -58 -192 -58 -31 0 -71 42 -77 82 l-7 37 68 35 c79 40 140 46 213 18z"/>
 </g>

</svg>